<svg width="25" height="25" viewBox="0 0 25 25" fill="none" xmlns="http://www.w3.org/2000/svg">
<path fill-rule="evenodd" clip-rule="evenodd" d="M11.3273 1.38942C11.1731 1.54327 11.0507 1.72604 10.9672 1.92726C10.8837 2.12847 10.8408 2.34419 10.8408 2.56204C10.8408 2.7799 10.8837 2.99561 10.9672 3.19683C11.0507 3.39805 11.1731 3.58082 11.3273 3.73467L20.0955 12.4995L11.3273 21.2644C11.0163 21.5754 10.8416 21.9972 10.8416 22.437C10.8416 22.8769 11.0163 23.2987 11.3273 23.6097C11.6383 23.9207 12.0602 24.0954 12.5 24.0954C12.9398 24.0954 13.3616 23.9207 13.6726 23.6097L23.6101 13.6722C23.7643 13.5183 23.8867 13.3355 23.9702 13.1343C24.0537 12.9331 24.0967 12.7174 24.0967 12.4995C24.0967 12.2817 24.0537 12.066 23.9702 11.8648C23.8867 11.6635 23.7643 11.4808 23.6101 11.3269L13.6726 1.38942C13.5187 1.23518 13.336 1.1128 13.1348 1.02931C12.9335 0.945809 12.7178 0.902832 12.5 0.902832C12.2821 0.902832 12.0664 0.945809 11.8652 1.02931C11.664 1.1128 11.4812 1.23518 11.3273 1.38942Z" fill="#EA6E6B"/>
<path fill-rule="evenodd" clip-rule="evenodd" d="M0.906248 12.5C0.906248 12.9393 1.08074 13.3605 1.39135 13.6711C1.70196 13.9818 2.12323 14.1562 2.5625 14.1562L19.125 14.1562C19.5643 14.1562 19.9855 13.9818 20.2961 13.6711C20.6068 13.3605 20.7812 12.9393 20.7812 12.5C20.7812 12.0607 20.6068 11.6395 20.2961 11.3289C19.9855 11.0182 19.5643 10.8437 19.125 10.8437L2.5625 10.8437C2.12323 10.8437 1.70196 11.0182 1.39135 11.3289C1.08074 11.6395 0.906248 12.0607 0.906248 12.5Z" fill="#EA6E6B"/>
</svg>
