<svg width="16" height="9" viewBox="0 0 16 9" fill="none" xmlns="http://www.w3.org/2000/svg">
<path d="M7.99997 1.00003C8.23362 0.999573 8.46006 1.08095 8.63997 1.23003L14.64 6.23003C14.8442 6.39977 14.9726 6.64368 14.997 6.90811C15.0214 7.17253 14.9397 7.43581 14.77 7.64003C14.6002 7.84425 14.3563 7.97267 14.0919 7.99705C13.8275 8.02143 13.5642 7.93977 13.36 7.77003L7.99997 3.29003L2.63997 7.61003C2.53768 7.6931 2.41998 7.75513 2.29364 7.79256C2.16731 7.82999 2.03481 7.84208 1.90379 7.82814C1.77276 7.81421 1.64578 7.77451 1.53014 7.71134C1.4145 7.64816 1.31249 7.56276 1.22997 7.46003C1.13839 7.35721 1.06903 7.23658 1.02624 7.10571C0.983444 6.97483 0.968142 6.83653 0.981284 6.69947C0.994427 6.56241 1.03573 6.42953 1.10262 6.30918C1.1695 6.18882 1.26052 6.08357 1.36997 6.00003L7.36997 1.17003C7.55505 1.04451 7.77687 0.984659 7.99997 1.00003Z" fill="black"/>
</svg>
