<svg width="16" height="10" viewBox="0 0 16 10" fill="none" xmlns="http://www.w3.org/2000/svg">
<path d="M0.49182 1.15024C0.394813 1.247 0.317849 1.36195 0.265335 1.4885C0.212822 1.61506 0.185791 1.75073 0.185791 1.88774C0.185791 2.02476 0.212822 2.16042 0.265335 2.28698C0.317849 2.41353 0.394813 2.52848 0.49182 2.62524L7.41682 9.55024C7.49392 9.62749 7.58549 9.68878 7.6863 9.7306C7.78711 9.77242 7.89518 9.79395 8.00432 9.79395C8.11346 9.79395 8.22153 9.77242 8.32234 9.7306C8.42315 9.68878 8.51473 9.62749 8.59182 9.55024L15.5168 2.62524C15.9252 2.21691 15.9252 1.55857 15.5168 1.15024C15.1085 0.741906 14.4502 0.741906 14.0418 1.15024L8.00015 7.18357L1.95849 1.14191C1.55849 0.741907 0.89182 0.741906 0.49182 1.15024Z" fill="#999999"/>
</svg>
