<svg width="20" height="19" viewBox="0 0 20 19" fill="none" xmlns="http://www.w3.org/2000/svg">
<path fill-rule="evenodd" clip-rule="evenodd" d="M9.99999 3.435L9.10374 2.51375C6.99999 0.35125 3.14249 1.0975 1.74999 3.81625C1.09624 5.095 0.948741 6.94125 2.14249 9.2975C3.29249 11.5662 5.68499 14.2837 9.99999 17.2437C14.315 14.2837 16.7062 11.5662 17.8575 9.2975C19.0512 6.94 18.905 5.095 18.25 3.81625C16.8575 1.0975 13 0.35 10.8962 2.5125L9.99999 3.435ZM9.99999 18.75C-9.16626 6.085 4.09874 -3.8 9.77999 1.42875C9.85499 1.4975 9.92874 1.56875 9.99999 1.6425C10.0705 1.56882 10.1439 1.49793 10.22 1.43C15.9 -3.8025 29.1662 6.08375 9.99999 18.75Z" fill="#EA6E6B"/>
</svg>
