<svg width="18" height="24" viewBox="0 0 18 24" fill="none" xmlns="http://www.w3.org/2000/svg">
<path d="M9.02384 0C5.47429 0 2.94888 1.54675 1.72063 4.47304C0.750002 6.78555 0.750001 9.51715 0.750001 11.5117C0.748793 13.6161 1.55139 15.6415 2.99372 17.1739C2.57034 17.4838 2.17647 17.8322 1.81713 18.2145C1.54172 18.5098 1.33513 18.8624 1.2122 19.247C1.08927 19.6316 1.05305 20.0386 1.10614 20.4389C1.15922 20.8391 1.30031 21.2227 1.51925 21.5619C1.73819 21.9011 2.02955 22.1877 2.3724 22.4009C4.0901 23.462 6.32796 24 9.02384 24C11.7197 24 13.9576 23.462 15.6752 22.401C16.0181 22.1877 16.3095 21.9012 16.5284 21.5619C16.7474 21.2227 16.8885 20.8392 16.9416 20.4389C16.9946 20.0386 16.9584 19.6316 16.8355 19.247C16.7126 18.8624 16.506 18.5098 16.2306 18.2145C15.8712 17.8322 15.4773 17.4838 15.054 17.1738C16.4963 15.6415 17.2989 13.6161 17.2977 11.5117C17.2977 9.51714 17.2977 6.78555 16.3271 4.47304C15.0988 1.54675 12.5734 0 9.02384 0ZM14.9652 21.2515C13.5655 22.1161 11.649 22.6489 9.02384 22.6489C6.39869 22.6489 4.48221 22.1161 3.08251 21.2515C2.90986 21.1434 2.76322 20.9984 2.65308 20.8271C2.54295 20.6557 2.47203 20.4621 2.4454 20.2602C2.41878 20.0582 2.4371 19.8528 2.49906 19.6588C2.56101 19.4647 2.66508 19.2868 2.80381 19.1376C4.05256 17.855 5.68628 17.0157 7.45616 16.7475C7.46629 16.8184 7.48919 16.8868 7.52374 16.9496C7.72801 17.2821 8.63356 17.3815 9.02382 17.3815C9.41409 17.3815 10.3196 17.2821 10.5239 16.9496C10.5585 16.8868 10.5814 16.8184 10.5915 16.7475C12.3614 17.0157 13.9951 17.855 15.2439 19.1376C15.3826 19.2868 15.4867 19.4647 15.5486 19.6588C15.6106 19.8528 15.6289 20.0582 15.6023 20.2602C15.5756 20.4621 15.5047 20.6557 15.3946 20.8271C15.2845 20.9984 15.1378 21.1434 14.9652 21.2515ZM9.02384 14.9698C8.48386 14.9695 7.94923 14.8628 7.45048 14.6558C6.95173 14.4489 6.49862 14.1458 6.11703 13.7637C5.73543 13.3817 5.43283 12.9282 5.22648 12.4292C5.02014 11.9302 4.91411 11.3954 4.91443 10.8555C4.91443 10.4191 4.91473 9.92785 4.94383 9.41903C7.12213 8.80026 9.06178 7.53589 10.5071 5.79261C11.1473 6.85541 12.0007 7.77415 13.0134 8.49102C13.1097 9.2753 13.1497 10.0655 13.1332 10.8555C13.1339 11.946 12.7013 12.9921 11.9306 13.7637C11.16 14.5353 10.1144 14.9691 9.02384 14.9698ZM13.8864 16.4437C13.1976 16.082 12.4691 15.8015 11.7156 15.6078C12.5558 15.1308 13.2546 14.4398 13.7409 13.605C14.2273 12.7703 14.4838 11.8216 14.4844 10.8555C14.5016 10.0009 14.4569 9.14618 14.3507 8.29805L14.2671 7.71901L13.7877 7.38375C12.9291 6.77274 12.2051 5.99182 11.6608 5.08941L10.6558 3.44047L9.45111 4.9497C8.175 6.47566 6.46904 7.58209 4.55532 8.12494L3.64892 8.39705L3.59488 9.34188C3.56328 9.89452 3.56328 10.4273 3.56328 10.8555C3.56388 11.8216 3.82041 12.7703 4.30675 13.605C4.79309 14.4398 5.49189 15.1308 6.33204 15.6078C5.57854 15.8015 4.85007 16.082 4.16129 16.4437C3.50773 15.7995 2.98897 15.0316 2.63526 14.1849C2.28155 13.3381 2.09998 12.4294 2.10114 11.5117C2.10114 7.68379 2.10114 1.35115 9.02383 1.35115C15.9465 1.35115 15.9465 7.6838 15.9465 11.5117C15.9477 12.4294 15.7661 13.3381 15.4124 14.1849C15.0587 15.0316 14.54 15.7995 13.8864 16.4437H13.8864Z" fill="#C4C4C4"/>
</svg>
