<svg width="20" height="20" viewBox="0 0 20 20" fill="none" xmlns="http://www.w3.org/2000/svg">
<path d="M0.999738 11.9855H2.99974V18.9855C2.99974 19.2507 3.1051 19.5051 3.29263 19.6926C3.48017 19.8801 3.73452 19.9855 3.99974 19.9855H15.9997C16.265 19.9855 16.5193 19.8801 16.7068 19.6926C16.8944 19.5051 16.9997 19.2507 16.9997 18.9855V11.9855H18.9997C19.193 11.9857 19.3821 11.9297 19.5442 11.8245C19.7063 11.7192 19.8343 11.5691 19.9127 11.3925C19.9917 11.216 20.0177 11.0203 19.9875 10.8293C19.9573 10.6382 19.8723 10.4601 19.7427 10.3165L10.7427 0.3165C10.3637 -0.1055 9.63574 -0.1055 9.25674 0.3165L0.256738 10.3165C0.127429 10.4602 0.042526 10.6382 0.0123019 10.8291C-0.0179222 11.02 0.00782824 11.2156 0.0864374 11.3922C0.165047 11.5688 0.293145 11.7188 0.455233 11.8241C0.617321 11.9294 0.806451 11.9854 0.999738 11.9855ZM6.65274 9.6265C7.06897 9.21557 7.63033 8.98515 8.21524 8.98515C8.80014 8.98515 9.36151 9.21557 9.77774 9.6265L10.0017 9.8465L10.2247 9.6265C10.6411 9.2155 11.2027 8.98506 11.7877 8.98506C12.3728 8.98506 12.9343 9.2155 13.3507 9.6265C13.5573 9.82523 13.7217 10.0636 13.8339 10.3274C13.9462 10.5911 14.004 10.8748 14.004 11.1615C14.004 11.4482 13.9462 11.7319 13.8339 11.9956C13.7217 12.2594 13.5573 12.4978 13.3507 12.6965L10.0017 15.9855L6.65274 12.6965C6.44616 12.4978 6.28182 12.2594 6.16956 11.9956C6.05731 11.7319 5.99945 11.4482 5.99945 11.1615C5.99945 10.8748 6.05731 10.5911 6.16956 10.3274C6.28182 10.0636 6.44616 9.82523 6.65274 9.6265Z" fill="#EA6E6B"/>
</svg>
