<svg width="19" height="19" viewBox="0 0 19 19" fill="none" xmlns="http://www.w3.org/2000/svg">
<path d="M8.999 4.37701C7.77264 4.37701 6.59651 4.86418 5.72934 5.73135C4.86217 6.59852 4.375 7.77465 4.375 9.00101C4.375 10.2274 4.86217 11.4035 5.72934 12.2707C6.59651 13.1378 7.77264 13.625 8.999 13.625C10.2254 13.625 11.4015 13.1378 12.2687 12.2707C13.1358 11.4035 13.623 10.2274 13.623 9.00101C13.623 7.77465 13.1358 6.59852 12.2687 5.73135C11.4015 4.86418 10.2254 4.37701 8.999 4.37701ZM8.999 12.004C8.20229 12.004 7.43821 11.6875 6.87485 11.1242C6.31149 10.5608 5.995 9.79672 5.995 9.00001C5.995 8.2033 6.31149 7.43923 6.87485 6.87587C7.43821 6.31251 8.20229 5.99601 8.999 5.99601C9.79571 5.99601 10.5598 6.31251 11.1231 6.87587C11.6865 7.43923 12.003 8.2033 12.003 9.00001C12.003 9.79672 11.6865 10.5608 11.1231 11.1242C10.5598 11.6875 9.79571 12.004 8.999 12.004Z" fill="#999999"/>
<path d="M13.806 5.28503C14.4014 5.28503 14.884 4.80239 14.884 4.20703C14.884 3.61166 14.4014 3.12903 13.806 3.12903C13.2107 3.12903 12.728 3.61166 12.728 4.20703C12.728 4.80239 13.2107 5.28503 13.806 5.28503Z" fill="#999999"/>
<path d="M17.533 3.111C17.3015 2.51319 16.9477 1.97029 16.4943 1.51706C16.0409 1.06384 15.4979 0.710276 14.9 0.479005C14.2003 0.216362 13.4611 0.074346 12.714 0.0590048C11.751 0.0170048 11.446 0.00500488 9.00395 0.00500488C6.56195 0.00500488 6.24895 0.00500478 5.29395 0.0590048C4.54734 0.0735616 3.80871 0.215606 3.10995 0.479005C2.51189 0.710006 1.96872 1.06348 1.51529 1.51673C1.06186 1.96999 0.708182 2.51303 0.476953 3.111C0.214258 3.81062 0.0725676 4.54984 0.0579531 5.297C0.0149531 6.259 0.00195312 6.564 0.00195312 9.007C0.00195312 11.449 0.00195312 11.76 0.0579531 12.717C0.0729531 13.465 0.213953 14.203 0.476953 14.904C0.708831 15.5018 1.06285 16.0446 1.51639 16.4978C1.96993 16.951 2.51302 17.3046 3.11095 17.536C3.80839 17.8092 4.54732 17.9614 5.29595 17.986C6.25895 18.028 6.56395 18.041 9.00595 18.041C11.448 18.041 11.761 18.041 12.716 17.986C13.4631 17.9708 14.2022 17.8291 14.902 17.567C15.4997 17.3352 16.0426 16.9813 16.4959 16.528C16.9493 16.0746 17.3031 15.5318 17.535 14.934C17.798 14.234 17.939 13.496 17.954 12.748C17.997 11.786 18.01 11.481 18.01 9.038C18.01 6.59501 18.01 6.285 17.954 5.328C17.9423 4.57028 17.7999 3.82025 17.533 3.111ZM16.315 12.643C16.3085 13.2193 16.2033 13.7902 16.004 14.331C15.8538 14.7199 15.6239 15.073 15.329 15.3677C15.0342 15.6624 14.6809 15.8921 14.292 16.042C13.7572 16.2405 13.1923 16.3456 12.622 16.353C11.672 16.397 11.404 16.408 8.96795 16.408C6.52995 16.408 6.28095 16.408 5.31295 16.353C4.74288 16.346 4.17828 16.2408 3.64395 16.042C3.25364 15.893 2.89895 15.6637 2.60284 15.369C2.30673 15.0742 2.07579 14.7206 1.92495 14.331C1.7284 13.7961 1.62326 13.2318 1.61395 12.662C1.57095 11.712 1.56095 11.444 1.56095 9.00801C1.56095 6.571 1.56095 6.322 1.61395 5.353C1.62042 4.77703 1.72561 4.20642 1.92495 3.666C2.22995 2.877 2.85495 2.256 3.64395 1.954C4.17854 1.75614 4.74298 1.65097 5.31295 1.643C6.26395 1.6 6.53095 1.588 8.96795 1.588C11.405 1.588 11.655 1.588 12.622 1.643C13.1924 1.64987 13.7573 1.75508 14.292 1.954C14.6809 2.10428 15.0341 2.33421 15.3289 2.62903C15.6238 2.92386 15.8537 3.27708 16.004 3.666C16.2005 4.20095 16.3056 4.76516 16.315 5.335C16.358 6.28601 16.369 6.553 16.369 8.99C16.369 11.426 16.369 11.688 16.326 12.644H16.315V12.643Z" fill="#999999"/>
</svg>
