<svg width="19" height="24" viewBox="0 0 19 24" fill="none" xmlns="http://www.w3.org/2000/svg">
<path d="M12.644 14.2446C12.6357 14.1898 12.6283 14.1363 12.6185 14.079C13.4264 13.5827 14.114 12.9131 14.6314 12.1186C15.1489 11.3241 15.4835 10.4246 15.6108 9.48499C15.6134 9.46605 15.6157 9.44706 15.6181 9.42808C15.6319 9.31681 15.6429 9.2047 15.6511 9.09175C15.6528 9.06811 15.655 9.0446 15.6565 9.02088C15.6642 8.892 15.6694 8.76243 15.6694 8.63161V8.62318C15.6694 7.18574 15.6694 5.21709 14.9455 3.49436C14.2763 1.90212 12.7529 0.00484275 9.29669 0.000407605L9.28504 0C5.82031 0 4.29449 1.90024 3.6246 3.49436C2.90064 5.2171 2.90064 7.18573 2.90064 8.62317V8.63161C2.90064 8.76242 2.90583 8.892 2.91361 9.02087C2.91507 9.0446 2.91729 9.06811 2.91901 9.09175C2.92709 9.2047 2.93809 9.31681 2.952 9.42808C2.9544 9.44706 2.95669 9.46605 2.95924 9.48498C3.0866 10.4246 3.42112 11.3241 3.93862 12.1186C4.45611 12.9131 5.14365 13.5827 5.95155 14.079C5.94177 14.1363 5.93434 14.1898 5.92608 14.2446C3.99548 14.7599 2.243 15.7944 0.85904 17.2357C0.537038 17.5809 0.295494 17.9932 0.151763 18.4428C0.00803152 18.8925 -0.0343189 19.3684 0.0277544 19.8364C0.0898278 20.3044 0.254784 20.7528 0.510771 21.1494C0.766758 21.5461 1.10742 21.8811 1.50828 22.1304C3.5166 23.371 6.13306 24 9.28504 24C12.437 24 15.0535 23.371 17.0618 22.1304C17.4626 21.8811 17.8033 21.5461 18.0593 21.1495C18.3153 20.7528 18.4802 20.3044 18.5423 19.8364C18.6044 19.3684 18.562 18.8925 18.4183 18.4428C18.2746 17.9932 18.033 17.5809 17.711 17.2357C16.3271 15.7944 14.5746 14.7599 12.644 14.2446ZM16.2315 20.7864C14.5951 21.7973 12.3543 22.4203 9.28504 22.4203C6.21576 22.4203 3.97503 21.7973 2.33853 20.7864C2.13667 20.66 1.96522 20.4906 1.83645 20.2903C1.70768 20.0899 1.62476 19.8636 1.59363 19.6274C1.56249 19.3913 1.58391 19.1512 1.65635 18.9243C1.72879 18.6974 1.85046 18.4893 2.01267 18.3149C3.08921 17.1932 4.43147 16.3613 5.91509 15.8963C5.9611 16.1404 6.05272 16.3735 6.18513 16.5836C6.88253 17.7189 8.58532 17.8415 9.28503 17.8415C9.98475 17.8415 11.6875 17.7189 12.385 16.5836C12.5174 16.3735 12.609 16.1404 12.655 15.8963C14.1386 16.3613 15.4809 17.1932 16.5574 18.3149C16.7196 18.4893 16.8413 18.6974 16.9137 18.9243C16.9862 19.1512 17.0076 19.3913 16.9765 19.6274C16.9453 19.8636 16.8624 20.0899 16.7336 20.2903C16.6049 20.4906 16.4334 20.66 16.2315 20.7864ZM4.48038 8.63161C4.48038 5.97488 4.48038 1.57974 9.28506 1.57974C14.0897 1.57974 14.0897 5.97488 14.0897 8.63161C14.0904 9.26304 13.9667 9.88842 13.7256 10.472C13.4845 11.0556 13.1307 11.5859 12.6844 12.0326C12.2382 12.4794 11.7083 12.8338 11.125 13.0756C10.5417 13.3174 9.91647 13.4419 9.28504 13.4419C8.65361 13.4419 8.02837 13.3174 7.44508 13.0756C6.86178 12.8338 6.33187 12.4794 5.88564 12.0326C5.43942 11.5859 5.08563 11.0556 4.8445 10.472C4.60337 9.88842 4.47964 9.26304 4.48038 8.63161ZM11.0389 15.7567C10.9011 15.9242 10.7111 16.0406 10.4993 16.0874C9.70649 16.3198 8.86358 16.3198 8.07074 16.0874C7.85899 16.0406 7.66902 15.9242 7.53116 15.7567C7.41233 15.436 7.38661 15.0882 7.45697 14.7534C8.64943 15.1112 9.92064 15.1112 11.1131 14.7534C11.1835 15.0882 11.1577 15.436 11.0389 15.7567Z" fill="#C4C4C4"/>
</svg>
