<svg width="15" height="14" viewBox="0 0 15 14" fill="none" xmlns="http://www.w3.org/2000/svg">
<path fill-rule="evenodd" clip-rule="evenodd" d="M10.6122 9.56124C11.5361 8.37013 11.9716 6.87178 11.8299 5.37102C11.6883 3.87026 10.9802 2.47982 9.84981 1.48258C8.71939 0.485345 7.25151 -0.043785 5.7448 0.00283885C4.2381 0.0494627 2.80574 0.668338 1.73914 1.73356C0.671608 2.79952 0.0507091 4.23243 0.00297115 5.74028C-0.0447669 7.24814 0.484249 8.71745 1.48221 9.84881C2.48018 10.9802 3.87199 11.6884 5.37401 11.8292C6.87603 11.97 8.37522 11.5328 9.56608 10.6067L9.59794 10.64L12.7409 13.7837C12.8097 13.8525 12.8914 13.9071 12.9814 13.9444C13.0713 13.9816 13.1677 14.0008 13.2651 14.0008C13.3624 14.0008 13.4588 13.9816 13.5487 13.9444C13.6387 13.9071 13.7204 13.8525 13.7892 13.7837C13.8581 13.7148 13.9127 13.6331 13.9499 13.5432C13.9872 13.4532 14.0064 13.3568 14.0064 13.2595C14.0064 13.1621 13.9872 13.0657 13.9499 12.9758C13.9127 12.8858 13.8581 12.8041 13.7892 12.7353L10.6456 9.59236C10.6348 9.58168 10.6236 9.57131 10.6122 9.56124ZM9.07412 2.78194C9.49243 3.1935 9.82512 3.68381 10.053 4.22459C10.2809 4.76537 10.3994 5.34591 10.4018 5.93274C10.4042 6.51956 10.2904 7.10106 10.0669 7.64367C9.84346 8.18629 9.51477 8.67929 9.09982 9.09424C8.68487 9.50919 8.19186 9.83788 7.64925 10.0613C7.10663 10.2848 6.52514 10.3986 5.93832 10.3962C5.35149 10.3939 4.77095 10.2753 4.23017 10.0474C3.68939 9.81955 3.19908 9.48686 2.78752 9.06854C1.96506 8.23256 1.50624 7.10546 1.51101 5.93274C1.51579 4.76002 1.98377 3.63669 2.81302 2.80744C3.64226 1.97819 4.76559 1.51021 5.93832 1.50544C7.11104 1.50066 8.23814 1.95948 9.07412 2.78194Z" fill="#999999"/>
</svg>
