<svg width="16" height="15" viewBox="0 0 16 15" fill="none" xmlns="http://www.w3.org/2000/svg">
<path d="M7.61454 0.249054C7.76051 -0.0830185 8.23949 -0.0830179 8.38546 0.249055L10.3477 4.71305C10.4085 4.85141 10.5412 4.94618 10.6939 4.96029L15.6188 5.41549C15.9852 5.44935 16.1332 5.89718 15.8571 6.13627L12.1449 9.35037C12.0298 9.44999 11.9791 9.60334 12.0126 9.75042L13.0942 14.4957C13.1746 14.8487 12.7871 15.1255 12.4705 14.9412L8.21394 12.4636C8.08201 12.3868 7.91799 12.3868 7.78606 12.4636L3.52953 14.9412C3.21289 15.1255 2.82539 14.8487 2.90584 14.4957L3.98737 9.75042C4.02089 9.60334 3.97021 9.44999 3.85515 9.35037L0.142942 6.13627C-0.133206 5.89718 0.0148083 5.44935 0.381171 5.41549L5.30612 4.96029C5.45877 4.94618 5.59146 4.85141 5.65228 4.71305L7.61454 0.249054Z" fill="#CCCCCC"/>
</svg>
