<svg width="15" height="15" viewBox="0 0 15 15" fill="none" xmlns="http://www.w3.org/2000/svg">
<path d="M10.9025 8.4818C10.7311 8.39376 9.87739 7.97555 9.71859 7.91895C9.5598 7.8592 9.44345 7.8309 9.32868 8.00699C9.21234 8.18151 8.88217 8.56985 8.7784 8.68777C8.67778 8.80411 8.57558 8.81826 8.40421 8.73179C7.38541 8.22239 6.71722 7.82304 6.04588 6.6706C5.86821 6.36402 6.22354 6.38603 6.55528 5.72412C6.61188 5.60778 6.58358 5.50873 6.53955 5.42068C6.49553 5.33264 6.14964 4.48049 6.005 4.13303C5.86507 3.795 5.72042 3.84217 5.61509 3.83588C5.51446 3.82959 5.39969 3.82959 5.28335 3.82959C5.167 3.82959 4.97991 3.87361 4.82111 4.04498C4.66232 4.2195 4.21423 4.63929 4.21423 5.49143C4.21423 6.34358 4.83526 7.169 4.92016 7.28534C5.00821 7.40168 6.14178 9.15 7.88223 9.9031C8.98279 10.3779 9.41358 10.4188 9.96386 10.337C10.2987 10.2867 10.9889 9.91882 11.132 9.51161C11.2751 9.10598 11.2751 8.75852 11.2326 8.68619C11.1902 8.60915 11.0738 8.56513 10.9025 8.4818Z" fill="black"/>
<path d="M14.2309 4.37034C13.8755 3.52605 13.3661 2.76824 12.7168 2.11734C12.0675 1.46801 11.3097 0.957037 10.4638 0.603287C9.59908 0.240103 8.6809 0.0561523 7.73442 0.0561523H7.70298C6.75021 0.060869 5.82731 0.249536 4.95945 0.620581C4.12145 0.979048 3.36993 1.48845 2.72689 2.13778C2.08385 2.78711 1.57916 3.54178 1.23013 4.38292C0.868516 5.25393 0.686138 6.17997 0.690855 7.13274C0.695571 8.22386 0.956561 9.30712 1.44552 10.2756V12.6654C1.44552 13.0647 1.7694 13.3886 2.16875 13.3886H4.5601C5.52859 13.8776 6.61185 14.1386 7.70298 14.1433H7.73599C8.67776 14.1433 9.59122 13.9609 10.4512 13.604C11.2924 13.2534 12.0486 12.7503 12.6964 12.1073C13.3457 11.4642 13.8567 10.7127 14.2136 9.8747C14.5846 9.00683 14.7733 8.08393 14.778 7.13117C14.7827 6.17368 14.5972 5.24449 14.2309 4.37034ZM11.8552 11.2567C10.7531 12.3478 9.29093 12.9484 7.73442 12.9484H7.70769C6.75964 12.9437 5.81788 12.7078 4.98617 12.2645L4.85411 12.1937H2.64041V9.98004L2.56966 9.84797C2.1263 9.01626 1.89046 8.0745 1.88575 7.12645C1.87946 5.55894 2.47847 4.08734 3.57746 2.97892C4.67487 1.8705 6.14176 1.25733 7.70927 1.25104H7.73599C8.52211 1.25104 9.28464 1.40355 10.0031 1.70542C10.7044 1.99942 11.3332 2.42235 11.8741 2.9632C12.4134 3.50247 12.8379 4.13293 13.1319 4.83414C13.4369 5.56051 13.5894 6.3309 13.5862 7.12645C13.5768 8.69238 12.9621 10.1593 11.8552 11.2567Z" fill="black"/>
</svg>
